<svg width="24" height="24" viewBox="0 0 24 24" fill="none" xmlns="http://www.w3.org/2000/svg">
<path d="M16.125 12C16.125 10.8542 15.724 9.88021 14.9219 9.07812C14.1198 8.27604 13.1458 7.875 12 7.875C10.8542 7.875 9.88021 8.27604 9.07812 9.07812C8.27604 9.88021 7.875 10.8542 7.875 12C7.875 13.1458 8.27604 14.1198 9.07812 14.9219C9.88021 15.724 10.8542 16.125 12 16.125C13.1458 16.125 14.1198 15.724 14.9219 14.9219C15.724 14.1198 16.125 13.1458 16.125 12ZM1 10.625V20.25C1 21.0091 1.26855 21.6572 1.80566 22.1943C2.34277 22.7314 2.99089 23 3.75 23H20.25C21.0091 23 21.6572 22.7314 22.1943 22.1943C22.7314 21.6572 23 21.0091 23 20.25V3.75C23 2.99089 22.7314 2.34277 22.1943 1.80566C21.6572 1.26855 21.0091 1 20.25 1H3.75C2.99089 1 2.34277 1.26855 1.80566 1.80566C1.26855 2.34277 1 2.99089 1 3.75V7.875H6.5C7.14453 7.02995 7.94662 6.36035 8.90625 5.86621C9.86589 5.37207 10.8971 5.125 12 5.125C13.1029 5.125 14.1341 5.37207 15.0938 5.86621C16.0534 6.36035 16.8555 7.02995 17.5 7.875H23V10.625H18.7461C18.832 11.0833 18.875 11.5417 18.875 12C18.875 13.2461 18.5671 14.3955 17.9512 15.4482C17.3353 16.501 16.501 17.3353 15.4482 17.9512C14.3955 18.5671 13.2461 18.875 12 18.875C10.7539 18.875 9.60449 18.5671 8.55176 17.9512C7.49902 17.3353 6.66471 16.501 6.04883 15.4482C5.43294 14.3955 5.125 13.2461 5.125 12C5.125 11.5417 5.16797 11.0833 5.25391 10.625H1Z" fill="white"/>
</svg>
