<svg width="24" height="24" viewBox="0 0 24 24" fill="none" xmlns="http://www.w3.org/2000/svg">
<path d="M23 20.5556V3.44444C23 2.1 21.8963 1 20.5494 1H3.45056C2.045 1 1 2.04256 1 3.44444V20.5556C1 21.9587 2.045 23 3.45056 23H20.5494C21.198 22.999 21.8198 22.7414 22.279 22.2833C22.7382 21.8253 22.9974 21.2041 23 20.5556ZM18.336 13.9641C18.336 13.9641 19.7196 15.3293 20.0606 15.9624C20.0703 15.9759 20.074 15.9881 20.0777 15.993C20.2158 16.2252 20.2512 16.4086 20.1816 16.543C20.0667 16.7667 19.6756 16.8791 19.5423 16.8889H17.0991C16.928 16.8889 16.5736 16.8449 16.1433 16.5479C15.8133 16.3181 15.487 15.938 15.1692 15.5677C14.695 15.0177 14.2843 14.541 13.8712 14.541C13.8188 14.5409 13.7668 14.5496 13.7172 14.5667C13.4031 14.6669 13.0047 15.113 13.0047 16.3047C13.0047 16.6774 12.7113 16.8901 12.5036 16.8901H11.384C11.0027 16.8901 9.01656 16.7569 7.25778 14.9003C5.09933 12.627 3.16089 8.06689 3.14378 8.02656C3.02156 7.732 3.27456 7.57189 3.54956 7.57189H6.01844C6.34967 7.57189 6.456 7.77233 6.53178 7.952C6.61733 8.15611 6.94 8.97989 7.468 9.90633C8.32722 11.4133 8.85644 12.0269 9.27811 12.0269C9.35696 12.0264 9.43437 12.0058 9.503 11.967C10.0542 11.6627 9.95156 9.69733 9.92711 9.29156C9.92711 9.21456 9.92589 8.41278 9.64478 8.02778C9.44189 7.74911 9.09844 7.64278 8.89067 7.60244C8.97539 7.4857 9.08688 7.39098 9.21578 7.32622C9.59344 7.138 10.2742 7.11111 10.9513 7.11111H11.3278C12.0623 7.12089 12.253 7.16856 12.5182 7.23578C13.0548 7.36411 13.0658 7.71244 13.0181 8.898C13.0047 9.23533 12.99 9.61789 12.99 10.0664C12.99 10.163 12.9863 10.2693 12.9863 10.3793C12.9692 10.9856 12.9497 11.6712 13.3774 11.9523C13.4328 11.987 13.4967 12.0056 13.562 12.0061C13.7111 12.0061 14.1572 12.0061 15.366 9.932C15.8977 9.01655 16.3071 7.93611 16.3352 7.85544C16.3779 7.76823 16.4398 7.69177 16.5161 7.63178C16.5787 7.59926 16.6485 7.58288 16.719 7.58411H19.6218C19.9396 7.58411 20.1547 7.63178 20.195 7.75278C20.2647 7.94711 20.1816 8.53989 18.8554 10.3317L18.2651 11.1139C17.0624 12.6881 17.0624 12.7688 18.336 13.9641Z" fill="white"/>
</svg>
