<svg width="24" height="32" viewBox="0 0 24 32" fill="none" xmlns="http://www.w3.org/2000/svg">
<path d="M3.63914 24.4591L0.27114 29.6591L0.62954 31.3599L2.32554 30.9967L5.69194 25.7999C4.96803 25.4169 4.28087 24.968 3.63914 24.4591ZM17.8983 22.6431C17.9207 22.5967 17.9351 22.5455 17.9559 22.4959C18.0407 22.3087 18.1159 22.1215 18.1767 21.9247C18.1863 21.8895 18.1911 21.8543 18.2023 21.8223C18.2648 21.6073 18.3171 21.3895 18.3591 21.1695V21.1359C18.6711 19.2655 18.1271 17.1791 16.8823 15.2943L18.6583 12.5519C20.7047 12.8127 22.4743 12.2975 23.3255 10.9807C24.8023 8.70395 23.0055 4.91355 19.3175 2.51195C15.6263 0.108746 11.4407 0.00794542 9.96714 2.28155C9.11274 3.59995 9.36234 5.42875 10.4359 7.19835L8.65674 9.94075C6.43434 9.56795 4.31114 9.91515 2.73194 10.9647C2.72234 10.9679 2.71114 10.9711 2.70474 10.9775C2.52023 11.103 2.34288 11.2387 2.17354 11.3839C2.14634 11.4063 2.11434 11.4271 2.09194 11.4495C1.93833 11.5853 1.79351 11.7306 1.65834 11.8847C1.62634 11.9231 1.58154 11.9567 1.55114 11.9967C1.38073 12.1897 1.2256 12.3957 1.08714 12.6127C-1.12726 16.0255 0.76234 21.1903 5.29994 24.1471C9.84074 27.1039 15.3159 26.7295 17.5255 23.3167C17.6647 23.1007 17.7927 22.8751 17.8983 22.6431ZM16.5943 6.71035C15.1751 5.78715 14.4823 4.33115 15.0503 3.45275C15.6167 2.57755 17.2279 2.61755 18.6439 3.54075C20.0663 4.46395 20.7527 5.92315 20.1879 6.79835C19.6231 7.67355 18.0151 7.63355 16.5943 6.71035Z" fill="#009FAC"/>
</svg>
