<svg width="60" height="26" viewBox="0 0 60 26" fill="none" xmlns="http://www.w3.org/2000/svg">
<path fill-rule="evenodd" clip-rule="evenodd" d="M13.6387 0.31498C12.1686 2.3729 11.3415 4.46102 11.0669 6.80827C10.9603 7.71864 11.0184 9.70073 11.1754 10.5124C11.5297 12.3441 12.3014 14.2105 13.319 15.6969C13.8508 16.4735 13.8489 16.4728 14.1916 16.0173C15.8628 13.796 16.8755 10.523 16.7437 7.76914C16.6143 5.06315 15.7409 2.61139 14.0865 0.309956L13.8638 0L13.6387 0.31498ZM14.6481 2.61311C15.6417 4.54834 16.0944 6.39982 16.0944 8.52932C16.0944 9.29598 15.9219 11.0832 15.841 11.1546C15.8263 11.1676 15.7908 10.783 15.7623 10.3C15.6655 8.66067 15.3756 7.31871 14.8227 5.94913C14.5096 5.17374 13.9288 4.03432 13.8466 4.03432C13.7638 4.03432 13.2139 5.12006 12.926 5.85215C12.3263 7.37715 12.0657 8.53613 12.0043 9.95053C11.9561 11.062 11.8999 11.3518 11.8187 10.909C11.7886 10.7454 11.7228 10.1025 11.6726 9.48028C11.5154 7.53579 11.7791 5.7842 12.5104 3.91653C12.8626 3.0168 13.4825 1.75344 13.7461 1.39821L13.8627 1.24095L14.0857 1.59652C14.2084 1.79205 14.4615 2.24955 14.6481 2.61311ZM18.9415 12.4294V16.9244H19.878H20.8146V12.9913V9.05814H21.7137H22.6128V8.49627V7.93439H20.7771H18.9415V12.4294ZM23.7366 8.02767C23.7366 8.07896 23.567 9.60343 23.3598 11.4154C22.8795 15.6136 22.7631 16.6653 22.7628 16.8087C22.7626 16.9126 22.8566 16.9244 23.689 16.9244H24.6153L24.6654 16.2138C24.693 15.8229 24.7359 15.2875 24.7609 15.0239L24.8063 14.5447H25.2744H25.7426L25.7859 14.8256C25.8097 14.9801 25.8518 15.5156 25.8794 16.0155L25.9297 16.9244H26.8889H27.848L27.8128 16.7096C27.7934 16.5914 27.5769 14.7099 27.3316 12.5285C27.0863 10.3471 26.865 8.42111 26.84 8.24838L26.7945 7.93439H25.2655C23.9994 7.93439 23.7366 7.95039 23.7366 8.02767ZM29.8057 8.00314C29.3994 8.0781 29.1444 8.23582 28.9439 8.53626C28.8148 8.72961 28.7905 8.90492 28.7687 9.8018L28.7434 10.8429H29.6865H30.6297L30.6308 10.1323C30.6319 9.38681 30.716 9.11017 30.9536 9.06978C31.2702 9.01604 31.304 9.14322 31.304 10.3883C31.304 11.8583 31.3194 11.8345 30.3674 11.8345H29.7306V12.3302V12.826H30.2975C30.8406 12.826 31.1281 12.8941 31.2467 13.0508C31.2769 13.0907 31.3022 13.6901 31.3029 14.3827C31.3041 15.717 31.2832 15.8006 30.95 15.8006C30.6922 15.8006 30.6297 15.5739 30.6297 14.6395V13.8176H29.6871H28.7444L28.7693 14.9909C28.797 16.293 28.8451 16.452 29.2986 16.7374C29.5297 16.8828 29.6186 16.8925 30.9046 16.9119C32.1608 16.9309 32.2896 16.9219 32.5707 16.7954C32.7721 16.7047 32.9329 16.5632 33.045 16.3782C33.2045 16.1147 33.2158 16.0099 33.2359 14.6108C33.2548 13.29 33.2422 13.0977 33.1235 12.8934C32.9543 12.6022 32.5533 12.3633 32.2339 12.3633C31.8804 12.3633 31.8503 12.2506 32.1903 12.1999C32.6237 12.1354 32.9435 11.932 33.1049 11.6182C33.2285 11.3781 33.2489 11.1804 33.2499 10.2149C33.2522 8.1996 33.061 7.99012 31.1916 7.95865C30.6147 7.94887 29.991 7.9689 29.8057 8.00314ZM34.6007 12.4294V16.9244H35.5747H36.5487V12.9913V9.05814H36.8859H37.223V12.9913V16.9244H38.1596H39.0961V12.4294V7.93439H36.8484H34.6007V12.4294ZM40.5009 7.97214C40.47 7.99984 40.4448 10.0254 40.4448 12.4735V16.9244H41.4188H42.3928V15.404V13.8837H43.1636C44.163 13.8837 44.5105 13.7495 44.7904 13.2557C44.9772 12.9259 44.9777 12.9207 44.9777 11.0082C44.9777 9.95384 44.9511 8.98054 44.9185 8.84523C44.8487 8.5549 44.5658 8.238 44.2382 8.08313C44.0434 7.99098 43.7122 7.96791 42.2804 7.94695C41.3326 7.93307 40.5319 7.94444 40.5009 7.97214ZM47.4129 8.00274C46.9704 8.08484 46.738 8.24164 46.5324 8.59674L46.3638 8.88786V12.4624V16.037L46.5324 16.3281C46.8402 16.8597 46.9352 16.8884 48.4642 16.912C49.6598 16.9305 49.8405 16.9188 50.1337 16.8043C50.3937 16.7029 50.4999 16.6088 50.6421 16.3541L50.8218 16.032V12.4294V8.82678L50.6522 8.54671C50.3725 8.08491 50.0551 7.9845 48.7988 7.96037C48.2219 7.94927 47.5982 7.96837 47.4129 8.00274ZM52.2079 12.4278V16.9244H53.1819H54.1559L54.1582 14.0985C54.1603 11.4897 54.204 10.9306 54.3379 11.8014C54.3658 11.9832 54.5723 13.1463 54.7968 14.386C55.0212 15.6257 55.2048 16.704 55.2048 16.7822C55.2048 16.9187 55.2364 16.9244 55.9901 16.9244C56.7433 16.9244 56.777 16.9183 56.8135 16.7757C56.8654 16.5725 57.0812 15.387 57.4601 13.2226C57.6352 12.2228 57.8062 11.3765 57.8402 11.342C57.8742 11.3075 57.9021 12.5494 57.9021 14.1018V16.9244H58.8761H59.8502V12.4294V7.93439H58.6183C57.9408 7.93439 57.371 7.95674 57.3519 7.98397C57.333 8.01121 57.1605 8.80695 56.9688 9.75222C56.7771 10.6975 56.5398 11.8576 56.4417 12.3302C56.3435 12.8029 56.2208 13.4201 56.169 13.7019C56.1171 13.9836 56.053 14.2142 56.0264 14.2142C55.9998 14.2142 55.9357 13.9985 55.8839 13.7349C55.8321 13.4713 55.711 12.869 55.6148 12.3963C55.5187 11.9237 55.3181 10.9272 55.1691 10.1819C55.0201 9.43658 54.8564 8.63343 54.8053 8.39711L54.7123 7.96745L53.4601 7.94933L52.2079 7.93122V12.4278ZM9.16386 8.0701C4.53369 8.48953 0.859702 11.5383 0.0949497 15.5957C-0.0593943 16.4143 -0.0196847 18.1186 0.171372 18.8744C1.09744 22.5391 4.27333 25.2301 8.45208 25.8908C9.38309 26.038 10.9519 26.0361 11.8986 25.8867C13.8142 25.5844 15.6624 24.7816 17.0222 23.6613L17.5928 23.1911V20.1238V17.0566H13.8841H10.1753V18.4196V19.7825L10.4388 19.6052C11.843 18.6602 13.9061 19.0481 14.7301 20.4119C15.4078 21.5338 15.1525 22.6663 14.0094 23.6082C13.0049 24.4359 11.5853 24.9233 10.1821 24.9224C5.67711 24.9195 2.93421 20.6369 5.2412 17.208C5.60421 16.6686 6.37001 15.9747 7.01421 15.6015C7.64282 15.2375 8.58462 14.9127 9.20132 14.8473C9.42797 14.8232 9.7407 14.7872 9.89625 14.7672L10.1791 14.7308L10.1585 11.3822L10.1379 8.03355L9.95057 8.02469C9.84755 8.0198 9.49353 8.04023 9.16386 8.0701ZM25.4207 9.83485C25.4484 10.2621 25.5189 11.1916 25.5774 11.9006C25.6358 12.6095 25.6838 13.2862 25.6841 13.4044L25.6847 13.6192H25.2666H24.8486L24.8912 13.2061C24.9147 12.9789 24.9865 12.0196 25.0507 11.0743C25.115 10.129 25.1834 9.28871 25.2028 9.20687C25.2855 8.85726 25.3737 9.11142 25.4207 9.83485ZM42.9505 9.20509C43.0486 9.32864 43.0671 9.61757 43.0671 11.0229C43.0671 12.6223 43.0605 12.6996 42.9127 12.83C42.8266 12.906 42.6856 12.9572 42.5943 12.9457C42.4303 12.9252 42.4302 12.9242 42.4104 10.9917L42.3905 9.05814H42.6122C42.7563 9.05814 42.8746 9.1095 42.9505 9.20509ZM48.8213 9.13747C48.9508 9.25176 48.9508 15.607 48.8213 15.7213C48.6837 15.8427 48.4011 15.8157 48.3144 15.6728C48.2641 15.5898 48.2369 14.4431 48.2369 12.4054C48.2369 9.63945 48.2509 9.25354 48.3546 9.16199C48.4948 9.03831 48.6968 9.02767 48.8213 9.13747ZM14.1866 10.4794C14.9082 12.1709 14.8186 14.2861 13.9644 15.7244L13.8651 15.8917L13.7342 15.6682C13.1016 14.589 12.863 12.8881 13.1638 11.6022C13.2974 11.0309 13.6326 10.1767 13.7936 9.99733C13.901 9.87755 13.9613 9.95146 14.1866 10.4794ZM18.8666 22.9067V25.9805H39.4333H60V22.9067V19.8329H39.4333H18.8666V22.9067ZM21.5476 21.7003L21.5689 22.4109H22.0909H22.6128V21.6838V20.9567H23.0249H23.4369V22.8736V24.7906H23.0249H22.6128V23.9313V23.072H22.0883H21.5638V23.9313V24.7906H21.1143H20.6647V22.8703V20.9501L21.0956 20.9699L21.5264 20.9897L21.5476 21.7003ZM31.6037 21.2872V21.6177H30.8544H30.1052V22.0143V22.4109H30.7795H31.4538V22.7414V23.072H30.7795H30.1052V23.6338V24.1957H30.8544H31.6037V24.4932V24.7906H30.4424H29.281V22.8736V20.9567H30.4424H31.6037V21.2872ZM39.7564 21.2045C39.7784 21.405 39.7988 21.4194 40.0602 21.4194C40.2405 21.4194 40.4622 21.4875 40.6815 21.6102C41.1443 21.8691 41.3573 22.2605 41.3606 22.858C41.3656 23.7481 40.8428 24.3279 40.0351 24.3279C39.7826 24.3279 39.7704 24.3386 39.7704 24.5593V24.7906H39.3209H38.8713V24.5593C38.8713 24.3319 38.866 24.3279 38.5595 24.3279C38.1324 24.3279 37.6798 24.0817 37.447 23.7229C37.1982 23.3395 37.1795 22.5185 37.4103 22.1177C37.6342 21.729 38.0402 21.473 38.4938 21.4346C38.8666 21.403 38.8713 21.3997 38.8713 21.1763V20.9501L39.3022 20.9699C39.7281 20.9895 39.7333 20.9922 39.7564 21.2045ZM49.623 21.2872V21.5846L49.1172 21.6042L48.6115 21.6237V23.2072V24.7906H48.1994H47.7873V23.2042V21.6177H47.2629H46.7384V21.2857V20.9538L48.1807 20.9717L49.623 20.9897V21.2872ZM56.1039 21.6747V22.3928L56.5875 22.4271C57.1924 22.4699 57.5038 22.6265 57.728 23.0006C58.0457 23.5307 57.8969 24.3122 57.4144 24.6471C57.2265 24.7775 57.1195 24.7906 56.2437 24.7906H55.2798V22.8736V20.9567H55.6919H56.1039V21.6747ZM38.3492 22.1774C38.2321 22.2874 38.1638 22.4477 38.1397 22.6695C38.0693 23.316 38.2827 23.733 38.684 23.733H38.8713V22.8736C38.8713 22.0183 38.8705 22.0143 38.6971 22.0143C38.6012 22.0143 38.4447 22.0877 38.3492 22.1774ZM39.7704 22.8736V23.733H39.9523C40.3565 23.733 40.6046 23.131 40.4439 22.5402C40.3529 22.2052 40.1567 22.0143 39.9036 22.0143C39.7828 22.0143 39.7704 22.0942 39.7704 22.8736ZM56.1197 23.6504L56.1414 24.2288L56.4712 24.2223C56.8789 24.2143 57.003 24.0852 57.003 23.6689C57.003 23.2318 56.8507 23.072 56.4339 23.072H56.0981L56.1197 23.6504Z" fill="white"/>
</svg>
