<svg width="30" height="40" viewBox="0 0 30 40" fill="none" xmlns="http://www.w3.org/2000/svg">
<path d="M4.54795 30.5739L0.337949 37.0739L0.785948 39.1999L2.90595 38.7459L7.11395 32.2499C6.20906 31.7711 5.35011 31.21 4.54795 30.5739ZM22.3719 28.3039C22.3999 28.2459 22.4179 28.1819 22.4439 28.1199C22.5499 27.8859 22.6439 27.6519 22.7199 27.4059C22.7319 27.3619 22.7379 27.3179 22.7519 27.2779C22.83 27.0091 22.8954 26.7368 22.9479 26.4619V26.4199C23.3379 24.0819 22.6579 21.4739 21.1019 19.1179L23.3219 15.6899C25.8799 16.0159 28.0919 15.3719 29.1559 13.7259C31.0019 10.8799 28.7559 6.14192 24.1459 3.13992C19.5319 0.135917 14.2999 0.00991654 12.4579 2.85192C11.3899 4.49992 11.7019 6.78592 13.0439 8.99792L10.8199 12.4259C8.04195 11.9599 5.38795 12.3939 3.41395 13.7059C3.40195 13.7099 3.38795 13.7139 3.37995 13.7219C3.14931 13.8787 2.92763 14.0483 2.71595 14.2299C2.68195 14.2579 2.64195 14.2839 2.61395 14.3119C2.42194 14.4816 2.24091 14.6633 2.07195 14.8559C2.03195 14.9039 1.97595 14.9459 1.93795 14.9959C1.72494 15.2372 1.53102 15.4946 1.35795 15.7659C-1.41005 20.0319 0.951948 26.4879 6.62395 30.1839C12.2999 33.8799 19.1439 33.4119 21.9059 29.1459C22.0799 28.8759 22.2399 28.5939 22.3719 28.3039ZM20.7419 8.38792C18.9679 7.23392 18.1019 5.41392 18.8119 4.31592C19.5199 3.22192 21.5339 3.27192 23.3039 4.42592C25.0819 5.57992 25.9399 7.40392 25.2339 8.49792C24.5279 9.59192 22.5179 9.54192 20.7419 8.38792Z" fill="#009FAC"/>
</svg>
